<?xml version="1.0" encoding="iso-8859-1"?>
<!-- Generator: Adobe Illustrator 21.0.0, SVG Export Plug-In . SVG Version: 6.00 Build 0)  -->
<svg xmlns="http://www.w3.org/2000/svg" xmlns:xlink="http://www.w3.org/1999/xlink" version="1.1" id="Capa_1" x="0px" y="0px" viewBox="0 0 1105.973 1105.973" style="enable-background:new 0 0 1105.973 1105.973;" xml:space="preserve" width="512" height="512">
<g>
	<g id="Video_Recorder-Film-2">

			<linearGradient id="SVGID_1_" gradientUnits="userSpaceOnUse" x1="387.0904" y1="1087.1343" x2="387.0904" y2="-55.704" gradientTransform="matrix(1 0 0 -1 0 1087.1344)">
			<stop offset="0" style="stop-color:#FFF33B"/>
                <stop offset="0.014" style="stop-color:#FEE72E"/>
                <stop offset="0.042" style="stop-color:#FED51B"/>
                <stop offset="0.07" style="stop-color:#FDCA10"/>
                <stop offset="0.1" style="stop-color:#FDC70C"/>
                <stop offset="0.4" style="stop-color:#F3903F"/>
                <stop offset="0.8" style="stop-color:#ED683C"/>
                <stop offset="1" style="stop-color:#E93E3A"/>
		</linearGradient>
        <path style="fill:url(#SVGID_1_);" d="M626.718,552.986H147.463c-10.18,0-18.433,8.253-18.433,18.433v294.926    c0,10.18,8.253,18.433,18.433,18.433h479.255c10.18,0,18.433-8.253,18.433-18.433V571.419    C645.151,561.239,636.898,552.986,626.718,552.986z M608.285,847.912H165.896v-258.06h442.389V847.912z"/>

        <linearGradient id="SVGID_2_" gradientUnits="userSpaceOnUse" x1="552.9863" y1="1087.1343" x2="552.9863" y2="-55.704" gradientTransform="matrix(1 0 0 -1 0 1087.1344)">
			<stop offset="0" style="stop-color:#FFF33B"/>
            <stop offset="0.014" style="stop-color:#FEE72E"/>
            <stop offset="0.042" style="stop-color:#FED51B"/>
            <stop offset="0.07" style="stop-color:#FDCA10"/>
            <stop offset="0.1" style="stop-color:#FDC70C"/>
            <stop offset="0.4" style="stop-color:#F3903F"/>
            <stop offset="0.8" style="stop-color:#ED683C"/>
            <stop offset="1" style="stop-color:#E93E3A"/>
		</linearGradient>
        <path style="fill:url(#SVGID_2_);" d="M1075.982,501.725c-18.408-9.545-40.617-7.934-57.455,4.166L842.161,631.879    c-3.408-3.285-7.949-5.133-12.682-5.161h-55.299V516.121c-0.061-50.876-41.289-92.103-92.164-92.164h-36.866v-55.299    c0-10.18-8.253-18.433-18.433-18.433H147.463c-10.18,0-18.433,8.253-18.433,18.433v55.299H92.164    C41.289,424.017,0.061,465.245,0,516.121v405.523c0.061,50.876,41.289,92.103,92.164,92.164h589.852    c50.876-0.061,92.103-41.289,92.164-92.164V811.047h55.299c4.733-0.028,9.274-1.876,12.682-5.161l176.366,125.989    c24.85,17.754,59.387,12.002,77.142-12.848c6.701-9.38,10.304-20.619,10.304-32.147V550.885    C1106.016,530.162,1094.429,511.167,1075.982,501.725z M165.896,387.09h442.389v36.866H165.896V387.09z M737.315,921.644    c0,30.541-24.758,55.299-55.299,55.299H92.164c-30.541,0-55.299-24.758-55.299-55.299V516.121    c0-30.541,24.758-55.299,55.299-55.299h589.852c30.541,0,55.299,24.758,55.299,55.299V921.644z M774.181,774.181V663.584h36.866    v110.597H774.181z M1069.107,886.879c-0.002,10.18-8.256,18.431-18.436,18.429c-3.847-0.001-7.597-1.205-10.725-3.443    L847.912,764.688v-91.611l192.034-137.177c8.278-5.925,19.792-4.017,25.717,4.261c2.239,3.128,3.443,6.878,3.443,10.724V886.879z"/>

        <linearGradient id="SVGID_3_" gradientUnits="userSpaceOnUse" x1="258.0603" y1="1087.1343" x2="258.0603" y2="-55.704" gradientTransform="matrix(1 0 0 -1 0 1087.1344)">
			<stop offset="0" style="stop-color:#FFF33B"/>
            <stop offset="0.014" style="stop-color:#FEE72E"/>
            <stop offset="0.042" style="stop-color:#FED51B"/>
            <stop offset="0.07" style="stop-color:#FDCA10"/>
            <stop offset="0.1" style="stop-color:#FDC70C"/>
            <stop offset="0.4" style="stop-color:#F3903F"/>
            <stop offset="0.8" style="stop-color:#ED683C"/>
            <stop offset="1" style="stop-color:#E93E3A"/>
		</linearGradient>
        <path style="fill:url(#SVGID_3_);" d="M387.09,221.195c0-71.261-57.769-129.03-129.03-129.03s-129.03,57.769-129.03,129.03    s57.769,129.03,129.03,129.03C329.288,350.143,387.009,292.422,387.09,221.195z M258.06,313.359    c-50.901,0-92.164-41.263-92.164-92.164s41.263-92.164,92.164-92.164s92.164,41.263,92.164,92.164    C350.164,272.07,308.936,313.298,258.06,313.359z"/>

        <linearGradient id="SVGID_4_" gradientUnits="userSpaceOnUse" x1="516.1205" y1="1087.1343" x2="516.1205" y2="-55.704" gradientTransform="matrix(1 0 0 -1 0 1087.1344)">
			<stop offset="0" style="stop-color:#FFF33B"/>
            <stop offset="0.014" style="stop-color:#FEE72E"/>
            <stop offset="0.042" style="stop-color:#FED51B"/>
            <stop offset="0.07" style="stop-color:#FDCA10"/>
            <stop offset="0.1" style="stop-color:#FDC70C"/>
            <stop offset="0.4" style="stop-color:#F3903F"/>
            <stop offset="0.8" style="stop-color:#ED683C"/>
            <stop offset="1" style="stop-color:#E93E3A"/>
		</linearGradient>
        <path style="fill:url(#SVGID_4_);" d="M516.121,350.225c71.261,0,129.03-57.769,129.03-129.03s-57.769-129.03-129.03-129.03    s-129.03,57.769-129.03,129.03C387.172,292.422,444.893,350.143,516.121,350.225z M516.121,129.03    c50.901,0,92.164,41.263,92.164,92.164s-41.263,92.164-92.164,92.164s-92.164-41.263-92.164-92.164    C424.017,170.319,465.245,129.091,516.121,129.03z"/>
	</g>
</g>
</svg>
